<svg width="41" height="30" viewBox="0 0 41 30" fill="none" xmlns="http://www.w3.org/2000/svg">
<path d="M11.0982 29.9172C12.4542 27.0187 13.7836 24.2797 14.9801 21.4876C15.3789 20.5569 15.8574 20.158 16.8944 20.2909C18.2769 20.4505 19.5797 20.2112 20.5901 19.1209C20.8294 18.855 21.0421 18.5359 21.2282 18.2434C21.3877 18.004 21.308 17.8445 20.9889 17.8445C18.4896 17.8445 15.9904 17.7115 13.6241 18.7486C12.2947 19.3602 11.3641 20.4239 10.7526 21.7535C10.4601 22.3917 10.1942 23.0565 9.95495 23.7213C9.02437 26.4603 7.0037 27.7899 4.21198 27.976C2.98894 28.0558 1.73931 27.976 0.516267 28.0026C0.0376856 28.0026 -0.0686658 27.843 0.0376856 27.391C0.303564 26.0614 1.42025 25.1041 2.82941 25.0243C3.25481 24.9977 3.68022 25.0243 4.07904 25.0243C5.62113 24.9977 6.76441 24.1734 7.24299 22.6842C7.32275 22.4715 7.40252 22.2322 7.45569 22.0194C8.83826 17.7647 11.8693 15.6108 16.2031 15.0789C17.5857 14.9194 18.9682 14.946 20.4306 14.9194C20.2179 14.1216 19.7924 13.4302 19.4734 12.7388C19.3139 12.3932 18.9948 12.4729 18.7023 12.4729C16.5221 12.4729 14.3419 12.4729 12.1617 12.4729C10.6462 12.4463 9.60931 11.622 9.21049 10.319C9.05096 9.73396 9.13073 9.54782 9.79542 9.54782C12.1883 9.57441 14.5812 9.54782 16.9741 9.54782C17.2666 9.54782 17.5325 9.54782 17.9845 9.54782C17.6122 8.72347 17.2666 7.9789 16.921 7.26092C16.7614 6.94181 16.4158 7.04818 16.1499 7.04818C12.0022 7.04818 7.85451 7.04818 3.70681 7.04818C2.27106 7.04818 1.12779 6.14406 0.808733 4.84105C0.675794 4.33581 0.782145 4.14966 1.36708 4.14966C6.95052 4.14966 12.5606 4.14966 18.144 4.12307C18.6758 4.12307 18.8619 4.3624 19.0746 4.78787C20.5369 7.92571 21.9992 11.0636 23.435 14.228C23.6743 14.7598 23.9402 14.946 24.5517 14.946C27.689 14.9194 30.7998 14.9194 33.9372 14.946C34.9741 14.946 35.6122 15.531 35.6388 16.4085C35.6388 17.2861 35.0007 17.8711 33.9638 17.8977C32.1292 17.9243 30.2946 17.8977 28.4335 17.8977C27.3168 17.8977 26.2267 17.9243 25.11 17.8977C24.658 17.8977 24.4985 18.0306 24.339 18.4561C23.3552 21.2748 21.4143 22.9501 18.3833 23.1895C17.6388 23.2426 17.2932 23.5617 17.0273 24.2C16.2563 25.9284 15.432 27.6303 14.661 29.3588C14.4483 29.8108 14.209 29.997 13.7038 29.9704C12.853 29.8906 12.0554 29.9172 11.0982 29.9172ZM25.8545 21.1951C26.8648 23.349 27.8752 25.5295 28.8855 27.6835C29.2311 28.4281 29.4172 29.4386 30.0022 29.7843C30.6137 30.1565 31.624 29.864 32.4748 29.9172C33.0864 29.9438 33.1395 29.7577 32.9003 29.2524C32.0494 27.4442 31.2252 25.6359 30.3478 23.8277C30.1351 23.3756 30.2149 23.2161 30.7201 23.2426C31.8633 23.2692 33.0332 23.2692 34.1765 23.2426C37.2075 23.1363 39.7067 21.2748 40.5841 18.5093C41.4615 15.7437 40.531 12.8452 38.1912 10.9838C37.1011 10.1328 35.8781 9.52123 34.655 8.9628C33.6447 8.48414 32.9003 7.73957 32.3685 6.75567C31.9431 5.93132 31.9697 5.87814 32.9268 5.87814C34.6019 5.87814 36.2769 5.90473 37.9785 5.87814C39.494 5.85154 40.6639 4.94742 40.9564 3.64442C41.0627 3.16576 41.0095 2.92644 40.398 2.95303C39.2016 3.00621 37.9785 2.95303 36.7821 2.97962C36.4896 2.97962 36.2237 2.97962 36.011 2.7137C35.3463 1.86276 34.4158 1.59684 33.3522 1.62343C32.6875 1.65003 32.0494 1.59684 31.3847 1.62343C30.9859 1.65003 30.7201 1.51707 30.4808 1.17137C29.8958 0.347022 29.045 -0.0252643 28.0347 0.00132763C27.5561 0.00132763 27.37 0.107695 27.5295 0.639533C28.0613 2.52756 28.4867 4.44217 29.0716 6.3302C29.8161 8.80325 31.2784 10.7179 33.7245 11.7549C34.7348 12.1804 35.7186 12.7123 36.5694 13.4302C37.8988 14.5471 38.3508 16.2756 37.7658 17.8445C37.2075 19.3602 35.7983 20.3441 34.0967 20.3441C31.5443 20.3707 28.9918 20.3441 26.4394 20.3441C26.1735 20.3441 25.8811 20.3441 25.5088 20.3441C25.6418 20.6632 25.7481 20.9292 25.8545 21.1951ZM28.3537 12.4729C28.9387 12.5261 28.9918 12.3134 28.7526 11.8081C27.6359 9.44145 26.5192 7.07477 25.4291 4.6815C25.1898 4.12307 24.8441 4.09648 24.3656 4.28262C23.2755 4.6815 22.7703 5.93132 23.2755 7.10136C23.8604 8.43096 24.5783 9.73396 25.11 11.0901C25.5354 12.1272 26.0406 12.8452 27.1041 12.4729C27.689 12.4729 28.0347 12.4463 28.3537 12.4729ZM25.9874 29.9172C26.5192 29.9438 26.7053 29.864 26.4394 29.279C25.6152 27.5505 24.8176 25.8221 24.0199 24.067C23.8338 23.6681 23.7009 23.5617 23.302 23.8543C22.7969 24.2265 22.2651 24.5722 21.6802 24.8116C21.2282 25.0243 21.2814 25.237 21.4409 25.5827C21.9195 26.54 22.3981 27.4973 22.7969 28.5078C23.1957 29.5449 23.6743 30.2895 24.7644 29.8906C25.3227 29.9172 25.6684 29.8906 25.9874 29.9172ZM36.2503 29.6247C36.3567 29.8906 36.5694 29.9438 36.8087 29.9172C37.5797 29.9172 38.3242 29.8906 39.0952 29.9172C39.5206 29.9172 39.6004 29.8108 39.4143 29.412C38.8028 28.109 38.1912 26.806 37.6063 25.503C37.5 25.2636 37.3404 25.1041 37.0745 25.2104C36.2503 25.503 35.3995 25.6093 34.4689 25.7157C35.0539 27.0453 35.6654 28.3217 36.2503 29.6247Z" fill="#6FBE5E"/>
</svg>
