<svg width="92" height="67" viewBox="0 0 92 67" fill="none" xmlns="http://www.w3.org/2000/svg">
<path d="M24.9033 66.8151C27.946 60.3418 30.9291 54.2247 33.6138 47.9889C34.5087 45.9103 35.5826 45.0195 37.9093 45.3164C41.0117 45.6728 43.935 45.1383 46.2021 42.7033C46.7391 42.1095 47.2164 41.3968 47.634 40.7435C47.992 40.209 47.813 39.8527 47.0971 39.8527C41.489 39.8527 35.8809 39.5558 30.5711 41.8719C27.5881 43.2378 25.4999 45.6134 24.1278 48.5828C23.4715 50.0081 22.8749 51.4929 22.3379 52.9776C20.2498 59.0946 15.7156 62.064 9.45126 62.4797C6.70688 62.6579 3.90284 62.4797 1.15845 62.5391C0.0845627 62.5391 -0.154079 62.1828 0.0845627 61.1732C0.681168 58.2038 3.18691 56.0658 6.34892 55.8876C7.30349 55.8282 8.25805 55.8876 9.15296 55.8876C12.6133 55.8282 15.1787 53.9872 16.2526 50.6614C16.4315 50.1863 16.6105 49.6518 16.7298 49.1767C19.8322 39.6745 26.6335 34.8641 36.3582 33.6763C39.4605 33.32 42.5629 33.3793 45.8442 33.32C45.3669 31.5383 44.4123 29.9942 43.6964 28.4501C43.3384 27.678 42.6225 27.8562 41.9662 27.8562C37.0741 27.8562 32.1819 27.8562 27.2898 27.8562C23.8891 27.7968 21.5623 25.9558 20.6674 23.0457C20.3095 21.7392 20.4885 21.3235 21.98 21.3235C27.3494 21.3829 32.7189 21.3235 38.0883 21.3235C38.7446 21.3235 39.3412 21.3235 40.3554 21.3235C39.5202 19.4824 38.7446 17.8195 37.969 16.216C37.611 15.5034 36.8354 15.7409 36.2388 15.7409C26.9318 15.7409 17.6248 15.7409 8.31771 15.7409C5.09605 15.7409 2.53064 13.7217 1.81472 10.8117C1.51642 9.6833 1.75506 9.26758 3.06759 9.26758C15.5963 9.26758 28.1847 9.26758 40.7134 9.20819C41.9066 9.20819 42.3242 9.74269 42.8015 10.6929C46.0828 17.7008 49.3642 24.7086 52.5858 31.7759C53.1228 32.9636 53.7194 33.3793 55.0916 33.3793C62.1315 33.32 69.1118 33.32 76.1517 33.3793C78.4785 33.3793 79.9103 34.6859 79.97 36.6457C79.97 38.6055 78.5381 39.9121 76.2114 39.9715C72.0948 40.0309 67.9782 39.9715 63.802 39.9715C61.2963 39.9715 58.8502 40.0309 56.3444 39.9715C55.3302 39.9715 54.9722 40.2684 54.6143 41.2186C52.4068 47.5138 48.0516 51.2553 41.2503 51.7898C39.5798 51.9086 38.8042 52.6212 38.2076 54.0466C36.4775 57.9068 34.628 61.7077 32.8978 65.5679C32.4206 66.5776 31.8836 66.9933 30.7501 66.9339C28.8409 66.7557 27.0511 66.8151 24.9033 66.8151ZM58.0149 47.3357C60.282 52.1461 62.5491 57.016 64.8162 61.8265C65.5918 63.4893 66.0094 65.7461 67.322 66.5182C68.6942 67.3496 70.9613 66.6963 72.8704 66.8151C74.2426 66.8745 74.3619 66.4588 73.825 65.3304C71.9158 61.292 70.0664 57.2536 68.0975 53.2151C67.6203 52.2055 67.7992 51.8492 68.9328 51.9086C71.4982 51.968 74.1233 51.968 76.6887 51.9086C83.49 51.671 89.0981 47.5138 91.0668 41.3374C93.0357 35.161 90.9475 28.6876 85.6974 24.5304C83.2513 22.63 80.5069 21.2641 77.7626 20.0169C75.4955 18.9479 73.825 17.285 72.6318 15.0877C71.6772 13.2466 71.7368 13.1278 73.8846 13.1278C77.6432 13.1278 81.4018 13.1872 85.2201 13.1278C88.6208 13.0685 91.2458 11.0492 91.9021 8.1392C92.1407 7.0702 92.0214 6.53571 90.6492 6.5951C87.9645 6.71387 85.2201 6.5951 82.5354 6.65448C81.8791 6.65448 81.2825 6.65448 80.8052 6.0606C79.3137 4.16016 77.2256 3.56628 74.8392 3.62567C73.3477 3.68506 71.9158 3.56628 70.4243 3.62567C69.5294 3.68506 68.9328 3.38811 68.3959 2.61606C67.0833 0.775016 65.1742 -0.0564235 62.9071 0.00296504C61.8332 0.00296504 61.4156 0.240519 61.7735 1.42829C62.9668 5.64488 63.9213 9.92086 65.2338 14.1374C66.9043 19.6606 70.1857 23.9366 75.6744 26.2527C77.9415 27.2029 80.149 28.3907 82.0581 29.9942C85.0411 32.4885 86.0554 36.3488 84.7428 39.8527C83.49 43.2378 80.328 45.4352 76.5097 45.4352C70.7823 45.4946 65.0549 45.4352 59.3275 45.4352C58.7309 45.4352 58.0746 45.4352 57.2393 45.4352C57.5376 46.1479 57.7763 46.7418 58.0149 47.3357ZM63.623 27.8562C64.9355 27.975 65.0549 27.4999 64.5179 26.3715C62.0122 21.0859 59.5064 15.8003 57.0604 10.4554C56.5234 9.20819 55.7478 9.1488 54.6739 9.56452C52.2279 10.4554 51.0943 13.2466 52.2279 15.8597C53.5404 18.8291 55.1512 21.7392 56.3444 24.768C57.299 27.0842 58.4326 28.6876 60.819 27.8562C62.1315 27.8562 62.9071 27.7968 63.623 27.8562ZM58.3132 66.8151C59.5064 66.8745 59.9241 66.6963 59.3275 65.3898C57.478 61.5295 55.6882 57.6693 53.8984 53.7496C53.4807 52.8588 53.1824 52.6212 52.2875 53.2745C51.154 54.106 49.9608 54.878 48.6482 55.4125C47.634 55.8876 47.7533 56.3627 48.1113 57.1348C49.1852 59.2728 50.2591 61.4108 51.154 63.6675C52.0489 65.9837 53.1228 67.6465 55.5688 66.7557C56.8217 66.8151 57.5973 66.7557 58.3132 66.8151ZM81.3422 66.1618C81.5808 66.7557 82.0581 66.8745 82.5951 66.8151C84.3252 66.8151 85.9957 66.7557 87.7259 66.8151C88.6804 66.8151 88.8594 66.5776 88.4418 65.6867C87.0696 62.7767 85.6974 59.8666 84.3849 56.9566C84.1462 56.4221 83.7883 56.0658 83.1917 56.3033C81.3422 56.9566 79.4331 57.1942 77.3449 57.4317C78.6575 60.4011 80.0297 63.2518 81.3422 66.1618Z" fill="#F9F9F9"/>
</svg>
